<?xml version="1.0" encoding="utf-8"?>
<!-- Generator: Adobe Illustrator 19.2.0, SVG Export Plug-In . SVG Version: 6.00 Build 0)  -->
<svg version="1.1" id="Capa_1" xmlns="http://www.w3.org/2000/svg" xmlns:xlink="http://www.w3.org/1999/xlink" x="0px" y="0px"
	 width="480px" height="480px" viewBox="0 0 480 480" style="enable-background:new 0 0 480 480;" xml:space="preserve">
<style type="text/css">
	.st0{fill:#FFFFFF;}
</style>
<g>
	<path class="st0" d="M50.9,467.4V296.7c-1-0.8-1.9-1.6-2.9-2.5c-9.9-9-17.6-19.3-23.1-30.6v203.8C24.9,484.2,50.9,484.2,50.9,467.4
		z M355.3,131.7c-0.7,0-1.3,0-2,0c-0.3,0-0.7,0-1,0H130.6c-0.6,0-1.3,0-1.9,0c-1,0-2,0-3,0c-55.1,0-99.8,40.5-99.9,90.5
		c0,0.1,0,0.1,0,0.2c0,23.1,9.5,44.1,25.1,60.1c18.3,18.7,45,30.6,74.7,30.6c27.4,0,53.5-10.5,72.1-28.7
		c9.4-9.2,16.7-20.1,21.6-31.8c4.2-10,12.8-14.9,21.4-14.9c8.4,0,16.7,4.7,20.9,13.8c5.4,11.6,12.5,22.7,21.6,32.1
		c18.4,19,44.1,29.6,72,29.6l0,0c55.2,0,99.9-40.6,99.9-90.7C455.1,172.3,410.4,131.7,355.3,131.7z M164,143.6
		c10.1,0,10.1,15.6,0,15.6S153.9,143.6,164,143.6z M114.6,144.7c10.1,0,10.1,15.6,0,15.6S104.5,144.7,114.6,144.7z M50.6,224.4
		c-1,0.5-2.2,0.9-3.7,0.9c-6.3,0-8.6-6-7.1-10.6c0.9-2.8,3.3-5,7.1-5C55.6,209.7,56.8,221.2,50.6,224.4z M63.1,272.6
		c-10.1,0-10.1-15.6,0-15.6C73.2,257,73.1,272.6,63.1,272.6z M68.8,181.1c-10.1,0-10.1-15.6,0-15.6S78.9,181.1,68.8,181.1z
		 M105.2,299.7c-10.1,0-10.1-15.6,0-15.6C115.3,284.1,115.3,299.7,105.2,299.7z M158.3,297.1c-10.1,0-10.1-15.6,0-15.6
		C168.3,281.5,168.3,297.1,158.3,297.1z M136.4,233.2c-20.6,0-39-9.3-51.2-24c12.2-14.7,30.6-24,51.2-24s39,9.3,51.2,24
		C175.3,223.9,157,233.2,136.4,233.2z M191,268.5c-10.1,0-10.1-15.6,0-15.6S201.1,268.5,191,268.5z M212.4,159.2
		c-10.1,0-10.1-15.6,0-15.6S222.4,159.2,212.4,159.2z M366.6,144.7c10.1,0,10.1,15.6,0,15.6C356.5,160.3,356.5,144.7,366.6,144.7z
		 M317.2,143.6c10.1,0,10.1,15.6,0,15.6C307.1,159.2,307.1,143.6,317.2,143.6z M268.8,159.2c-10.1,0-10.1-15.6,0-15.6
		C278.9,143.6,278.9,159.2,268.8,159.2z M290.1,268.5c-10.1,0-10.1-15.6,0-15.6C300.2,252.9,300.2,268.5,290.1,268.5z M322.9,297.1
		c-10.1,0-10.1-15.6,0-15.6S333,297.1,322.9,297.1z M375.9,299.7c-10.1,0-10.1-15.6,0-15.6S386,299.7,375.9,299.7z M344.8,233.2
		c-20.6,0-39-9.3-51.2-24c12.2-14.7,30.6-24,51.2-24s39,9.3,51.2,24C383.7,223.9,365.3,233.2,344.8,233.2z M412.4,165.5
		c10.1,0,10.1,15.6,0,15.6S402.3,165.5,412.4,165.5z M418.1,272.6c-10.1,0-10.1-15.6,0-15.6C428.2,257,428.1,272.6,418.1,272.6z
		 M434.2,225.3c-10.1,0-10.1-15.6,0-15.6C444.3,209.7,444.3,225.3,434.2,225.3z M60,66.3c9,0,16.3,7.3,16.3,16.3S69,98.9,60,98.9
		s-16.3-7.3-16.3-16.3S51,66.3,60,66.3z M352.1,73.2c9,0,16.3,7.3,16.3,16.3s-7.3,16.3-16.3,16.3c-9,0-16.3-7.3-16.3-16.3
		S343.1,73.2,352.1,73.2z M375.9,425.8c11.2,0,20.3,9.1,20.3,20.3c0,11.2-9.1,20.3-20.3,20.3s-20.3-9.1-20.3-20.3
		C355.6,434.9,364.7,425.8,375.9,425.8z M154.2,24.4L178.6,0L203,24.4l-24.4,24.4L154.2,24.4z M136.4,403.2l18.1,18.1l-18.1,18.1
		l-18.1-18.1L136.4,403.2z M289.9,333.4l25.5,25.5l-25.5,25.5l-25.5-25.5L289.9,333.4z"/>
</g>
</svg>
